<svg xmlns="http://www.w3.org/2000/svg" width="268" height="83" viewBox="0 0 268 83"><defs><style>.a{fill:#fff;}</style></defs><g transform="translate(-0.174 0.419)"><rect width="268" height="83" rx="4" transform="translate(0.174 -0.419)"/><path class="a" d="M45.417,71.635a11.786,11.786,0,0,1,5.613-9.89,12.071,12.071,0,0,0-9.506-5.139c-4-.419-7.877,2.394-9.917,2.394-2.078,0-5.214-2.352-8.594-2.283a12.658,12.658,0,0,0-10.653,6.5c-4.606,7.976-1.172,19.7,3.241,26.146,2.208,3.156,4.789,6.682,8.165,6.556,3.3-.136,4.537-2.105,8.525-2.105,3.952,0,5.11,2.105,8.555,2.027,3.546-.059,5.778-3.172,7.909-6.359a26.065,26.065,0,0,0,3.617-7.366A11.391,11.391,0,0,1,45.417,71.635Z" transform="translate(11.399 -30.526)"/><path class="a" d="M27.941,58.91A11.6,11.6,0,0,0,30.6,50.6a11.806,11.806,0,0,0-7.64,3.952,11.041,11.041,0,0,0-2.726,8.007A9.761,9.761,0,0,0,27.941,58.91Z" transform="translate(22.367 -37.07)"/><path class="a" d="M61.732,89.269H57.115l-2.529-7.946H45.8l-2.409,7.946h-4.5L47.6,62.213h5.378Zm-7.909-11.28-2.287-7.064q-.362-1.085-1.365-5.1h-.08q-.4,1.727-1.285,5.1l-2.248,7.064Z" transform="translate(42.896 -24.331)"/><path class="a" d="M70.294,75.536A11.087,11.087,0,0,1,67.606,83.4a7.868,7.868,0,0,1-5.982,2.571,5.983,5.983,0,0,1-5.539-2.77h-.08V93.48H51.669V72.446q0-3.129-.161-6.422h3.814l.241,3.091h.08a7.715,7.715,0,0,1,12.345-.765A10.778,10.778,0,0,1,70.294,75.536Zm-4.416.159A8.055,8.055,0,0,0,64.6,71a4.441,4.441,0,0,0-3.774-1.927,4.5,4.5,0,0,0-2.91,1.065A4.939,4.939,0,0,0,56.2,72.928a5.663,5.663,0,0,0-.2,1.323V77.5a5.208,5.208,0,0,0,1.3,3.594A4.326,4.326,0,0,0,60.7,82.562a4.434,4.434,0,0,0,3.812-1.887A8.312,8.312,0,0,0,65.879,75.7Z" transform="translate(56.733 -20.593)"/><path class="a" d="M81,75.536A11.08,11.08,0,0,1,78.305,83.4a7.86,7.86,0,0,1-5.98,2.571,5.981,5.981,0,0,1-5.539-2.77h-.08V93.48H62.37V72.446q0-3.129-.159-6.422h3.812l.241,3.091h.082a7.715,7.715,0,0,1,12.345-.765A10.778,10.778,0,0,1,81,75.536Zm-4.416.159A8.041,8.041,0,0,0,75.294,71a4.435,4.435,0,0,0-3.772-1.927,4.506,4.506,0,0,0-2.91,1.065,4.936,4.936,0,0,0-1.7,2.791,5.683,5.683,0,0,0-.2,1.323V77.5a5.226,5.226,0,0,0,1.3,3.594A4.331,4.331,0,0,0,71.4,82.562a4.432,4.432,0,0,0,3.812-1.887A8.312,8.312,0,0,0,76.582,75.7Z" transform="translate(68.471 -20.593)"/><path class="a" d="M91.917,81.893a7.208,7.208,0,0,1-2.4,5.619q-2.645,2.371-7.37,2.369A12.914,12.914,0,0,1,75.131,88.2l1-3.615A11.865,11.865,0,0,0,82.4,86.309a5.929,5.929,0,0,0,3.816-1.1,3.611,3.611,0,0,0,1.363-2.956,3.768,3.768,0,0,0-1.124-2.774,10.444,10.444,0,0,0-3.734-2.093q-7.1-2.651-7.1-7.76a6.869,6.869,0,0,1,2.491-5.468,9.814,9.814,0,0,1,6.623-2.132,13.138,13.138,0,0,1,6.139,1.285l-1.084,3.533a10.676,10.676,0,0,0-5.179-1.245,5.235,5.235,0,0,0-3.571,1.126,3.214,3.214,0,0,0-1.084,2.449A3.3,3.3,0,0,0,81.2,71.817a14.056,14.056,0,0,0,3.935,2.088,13.377,13.377,0,0,1,5.139,3.29A6.912,6.912,0,0,1,91.917,81.893Z" transform="translate(82.64 -24.541)"/><path class="a" d="M96.187,71.606H91.411v9.473q0,3.61,2.529,3.613a7.846,7.846,0,0,0,1.927-.2l.12,3.29a9.787,9.787,0,0,1-3.371.482A5.2,5.2,0,0,1,88.6,86.7q-1.444-1.569-1.447-5.261V71.606H84.305V68.354h2.847V64.779L91.411,63.5v4.858h4.776Z" transform="translate(92.701 -22.924)"/><path class="a" d="M110.248,75.616A10.711,10.711,0,0,1,107.68,83a9.178,9.178,0,0,1-7.148,2.971,8.719,8.719,0,0,1-6.842-2.849,10.372,10.372,0,0,1-2.55-7.185,10.6,10.6,0,0,1,2.627-7.426,9.108,9.108,0,0,1,7.085-2.891,8.913,8.913,0,0,1,6.907,2.851A10.285,10.285,0,0,1,110.248,75.616Zm-4.5.143a8.792,8.792,0,0,0-1.162-4.632,4.288,4.288,0,0,0-3.894-2.336,4.344,4.344,0,0,0-3.973,2.336,8.937,8.937,0,0,0-1.164,4.711,8.766,8.766,0,0,0,1.164,4.63,4.43,4.43,0,0,0,7.827-.04A8.8,8.8,0,0,0,105.749,75.758Z" transform="translate(100.198 -20.593)"/><path class="a" d="M112.434,69.835a7.491,7.491,0,0,0-1.367-.12,4.1,4.1,0,0,0-3.533,1.728A6.481,6.481,0,0,0,106.45,75.3V85.531h-4.332l.038-13.366q0-3.375-.161-6.141h3.776l.159,3.732h.12a6.649,6.649,0,0,1,2.168-3.091,5.245,5.245,0,0,1,3.132-1.044,7.021,7.021,0,0,1,1.084.08Z" transform="translate(112.102 -20.593)"/><path class="a" d="M125.291,74.876a10.053,10.053,0,0,1-.159,1.965h-13a5.662,5.662,0,0,0,1.885,4.418,6.439,6.439,0,0,0,4.254,1.365,14.375,14.375,0,0,0,5.261-.925l.679,3.011a16.269,16.269,0,0,1-6.54,1.206,9.472,9.472,0,0,1-7.129-2.671,9.861,9.861,0,0,1-2.589-7.164,11.173,11.173,0,0,1,2.411-7.347,8.3,8.3,0,0,1,6.823-3.13,7.262,7.262,0,0,1,6.384,3.13A10.534,10.534,0,0,1,125.291,74.876Zm-4.133-1.124a5.9,5.9,0,0,0-.843-3.332,3.786,3.786,0,0,0-3.455-1.807,4.108,4.108,0,0,0-3.449,1.767,6.435,6.435,0,0,0-1.283,3.371Z" transform="translate(118.632 -20.614)"/><path class="a" d="M51.046,57.638a6.671,6.671,0,0,1-2.151,5.4,8.548,8.548,0,0,1-5.659,1.677,26.445,26.445,0,0,1-3.118-.159V51.484a22.837,22.837,0,0,1,3.669-.277,7.917,7.917,0,0,1,5.267,1.52A6.135,6.135,0,0,1,51.046,57.638ZM48.8,57.7a4.332,4.332,0,0,0-4.833-4.812,9.1,9.1,0,0,0-1.715.138v9.938a11.294,11.294,0,0,0,1.438.061,5.037,5.037,0,0,0,3.776-1.361A5.439,5.439,0,0,0,48.8,57.7Z" transform="translate(44.242 -36.401)"/><path class="a" d="M55.92,57.839a5.243,5.243,0,0,1-1.262,3.627,4.5,4.5,0,0,1-3.51,1.461,4.289,4.289,0,0,1-3.363-1.4A5.1,5.1,0,0,1,46.533,58a5.213,5.213,0,0,1,1.292-3.648,4.47,4.47,0,0,1,3.481-1.419,4.388,4.388,0,0,1,3.392,1.4A5.067,5.067,0,0,1,55.92,57.839Zm-2.208.069a4.328,4.328,0,0,0-.572-2.275,2.1,2.1,0,0,0-1.912-1.147,2.136,2.136,0,0,0-1.954,1.147,4.4,4.4,0,0,0-.572,2.313,4.336,4.336,0,0,0,.572,2.277,2.152,2.152,0,0,0,1.933,1.145A2.125,2.125,0,0,0,53.119,60.2,4.3,4.3,0,0,0,53.712,57.909Z" transform="translate(51.277 -34.512)"/><path class="a" d="M65.891,53.023l-3,9.584H60.941L59.7,58.445a31.153,31.153,0,0,1-.769-3.095H58.89a22.258,22.258,0,0,1-.772,3.095L56.8,62.607H54.825l-2.818-9.584H54.2l1.084,4.556q.393,1.617.652,3.076h.038q.239-1.2.79-3.057l1.359-4.575h1.736l1.3,4.476q.475,1.635.769,3.156h.059a30.09,30.09,0,0,1,.652-3.156L63.8,53.023Z" transform="translate(57.281 -34.409)"/><path class="a" d="M68.291,62.71h-2.13V57.221q0-2.538-1.933-2.537a1.925,1.925,0,0,0-1.539.7,2.473,2.473,0,0,0-.591,1.644V62.71h-2.13V55.869q0-1.264-.078-2.742h1.872l.1,1.5h.059a3.057,3.057,0,0,1,1.1-1.155,3.6,3.6,0,0,1,1.933-.539,3.056,3.056,0,0,1,2.229.868,4.206,4.206,0,0,1,1.1,3.174Z" transform="translate(65.926 -34.512)"/><path class="a" d="M67.812,64.908H65.684V50.925h2.128Z" transform="translate(72.28 -36.71)"/><path class="a" d="M77.592,57.839a5.243,5.243,0,0,1-1.262,3.627,4.5,4.5,0,0,1-3.51,1.461,4.28,4.28,0,0,1-3.363-1.4A5.1,5.1,0,0,1,68.205,58,5.213,5.213,0,0,1,69.5,54.348a4.469,4.469,0,0,1,3.478-1.419,4.393,4.393,0,0,1,3.395,1.4A5.067,5.067,0,0,1,77.592,57.839Zm-2.212.069a4.327,4.327,0,0,0-.57-2.275,2.1,2.1,0,0,0-1.91-1.147,2.132,2.132,0,0,0-1.954,1.147,4.4,4.4,0,0,0-.572,2.313,4.335,4.335,0,0,0,.572,2.277,2.149,2.149,0,0,0,1.933,1.145,2.126,2.126,0,0,0,1.91-1.166A4.28,4.28,0,0,0,75.38,57.909Z" transform="translate(75.045 -34.512)"/><path class="a" d="M81.718,62.71H79.8l-.159-1.1h-.059a3.283,3.283,0,0,1-2.8,1.321A2.887,2.887,0,0,1,74.6,62.06a2.72,2.72,0,0,1-.751-1.952,2.982,2.982,0,0,1,1.47-2.684,7.662,7.662,0,0,1,4.133-.906V56.34q0-1.893-1.988-1.893a4.441,4.441,0,0,0-2.5.711l-.432-1.4a6.137,6.137,0,0,1,3.288-.828q3.758,0,3.761,3.965v3.529A14.866,14.866,0,0,0,81.718,62.71Zm-2.212-3.294V57.938q-3.526-.06-3.527,1.933a1.45,1.45,0,0,0,.409,1.124,1.493,1.493,0,0,0,1.04.373,2.144,2.144,0,0,0,1.3-.442,1.816,1.816,0,0,0,.738-1.134A1.768,1.768,0,0,0,79.506,59.416Z" transform="translate(81.232 -34.512)"/><path class="a" d="M88.162,64.908H86.271l-.1-1.539h-.061a3.183,3.183,0,0,1-3.078,1.757,3.611,3.611,0,0,1-2.879-1.361,5.31,5.31,0,0,1-1.143-3.531,5.546,5.546,0,0,1,1.243-3.766,3.813,3.813,0,0,1,2.958-1.342,2.877,2.877,0,0,1,2.7,1.3h.038v-5.5h2.132v11.4Q88.084,63.724,88.162,64.908Zm-2.21-4.042v-1.6a3.067,3.067,0,0,0-.059-.671,2.43,2.43,0,0,0-.769-1.292,2.1,2.1,0,0,0-1.426-.522,2.188,2.188,0,0,0-1.874.946,4.068,4.068,0,0,0-.684,2.426,3.78,3.78,0,0,0,.656,2.308,2.189,2.189,0,0,0,1.862.946,2.056,2.056,0,0,0,1.684-.788A2.636,2.636,0,0,0,85.952,60.865Z" transform="translate(86.897 -36.71)"/><path class="a" d="M96.977,57.839a5.253,5.253,0,0,1-1.262,3.627A4.5,4.5,0,0,1,92.2,62.928a4.3,4.3,0,0,1-3.363-1.4A5.1,5.1,0,0,1,87.59,58a5.212,5.212,0,0,1,1.289-3.648,4.472,4.472,0,0,1,3.483-1.419,4.384,4.384,0,0,1,3.39,1.4A5.059,5.059,0,0,1,96.977,57.839Zm-2.208.069a4.328,4.328,0,0,0-.572-2.275,2.106,2.106,0,0,0-1.914-1.147,2.141,2.141,0,0,0-1.954,1.147,4.424,4.424,0,0,0-.57,2.313,4.355,4.355,0,0,0,.57,2.277,2.181,2.181,0,0,0,3.85-.021A4.338,4.338,0,0,0,94.769,57.909Z" transform="translate(96.304 -34.512)"/><path class="a" d="M101.924,62.71H99.8V57.221q0-2.538-1.935-2.537a1.918,1.918,0,0,0-1.537.7,2.473,2.473,0,0,0-.591,1.644V62.71H93.6V55.869c0-.843-.023-1.757-.075-2.742H95.4l.1,1.5h.059a3.089,3.089,0,0,1,1.1-1.155,3.608,3.608,0,0,1,1.935-.539,3.055,3.055,0,0,1,2.227.868,4.2,4.2,0,0,1,1.1,3.174Z" transform="translate(102.813 -34.512)"/><path class="a" d="M107.423,55.869h-2.346v4.655q0,1.774,1.241,1.774a3.761,3.761,0,0,0,.95-.1l.055,1.617a4.755,4.755,0,0,1-1.654.239,2.551,2.551,0,0,1-1.971-.769,3.763,3.763,0,0,1-.711-2.585V55.869h-1.4v-1.6h1.4V52.516l2.09-.631v2.386h2.346Z" transform="translate(111.653 -35.657)"/><path class="a" d="M114.1,64.908H111.97V59.459q0-2.576-1.929-2.577a2.033,2.033,0,0,0-2.034,1.495,2.688,2.688,0,0,0-.1.767v5.764h-2.128V50.925h2.128V56.7h.04a3.224,3.224,0,0,1,2.879-1.575,2.972,2.972,0,0,1,2.191.868,4.361,4.361,0,0,1,1.086,3.214Z" transform="translate(116.254 -36.71)"/><path class="a" d="M119.756,57.475a5.039,5.039,0,0,1-.08.967h-6.389a2.794,2.794,0,0,0,.925,2.17,3.177,3.177,0,0,0,2.093.671,7.047,7.047,0,0,0,2.585-.455l.333,1.48a8.029,8.029,0,0,1-3.216.591,4.64,4.64,0,0,1-3.5-1.313,4.833,4.833,0,0,1-1.271-3.52,5.49,5.49,0,0,1,1.185-3.608,4.075,4.075,0,0,1,3.351-1.539,3.564,3.564,0,0,1,3.132,1.539A5.15,5.15,0,0,1,119.756,57.475Zm-2.034-.551a2.864,2.864,0,0,0-.413-1.638,1.86,1.86,0,0,0-1.7-.887,2.022,2.022,0,0,0-1.694.868,3.2,3.2,0,0,0-.631,1.656Z" transform="translate(122.238 -34.523)"/></g></svg>