<svg xmlns="http://www.w3.org/2000/svg" xmlns:xlink="http://www.w3.org/1999/xlink" width="303" height="87" viewBox="0 0 303 87"><defs><style>.a,.b,.i{fill:#fff;}.a{stroke:#fff;stroke-miterlimit:10;stroke-width:0.2px;}.c{fill:url(#a);}.d{fill:url(#b);}.e{fill:url(#c);}.f{fill:url(#d);}.g{opacity:0.2;}.g,.h,.i{isolation:isolate;}.h{opacity:0.12;}.i{opacity:0.25;}.j{fill:none;}</style><linearGradient id="a" x1="0.915" y1="6.614" x2="-0.383" y2="5.945" gradientUnits="objectBoundingBox"><stop offset="0" stop-color="#00a0ff"/><stop offset="0.007" stop-color="#00a1ff"/><stop offset="0.26" stop-color="#00beff"/><stop offset="0.512" stop-color="#00d2ff"/><stop offset="0.76" stop-color="#00dfff"/><stop offset="1" stop-color="#00e3ff"/></linearGradient><linearGradient id="b" x1="1.076" y1="17.098" x2="-1.305" y2="17.098" gradientUnits="objectBoundingBox"><stop offset="0" stop-color="#ffe000"/><stop offset="0.409" stop-color="#ffbd00"/><stop offset="0.775" stop-color="orange"/><stop offset="1" stop-color="#ff9c00"/></linearGradient><linearGradient id="c" x1="0.862" y1="10.863" x2="-0.501" y2="9.093" gradientUnits="objectBoundingBox"><stop offset="0" stop-color="#ff3a44"/><stop offset="1" stop-color="#c31162"/></linearGradient><linearGradient id="d" x1="-0.188" y1="13.583" x2="0.421" y2="12.793" gradientUnits="objectBoundingBox"><stop offset="0" stop-color="#32a071"/><stop offset="0.068" stop-color="#2da771"/><stop offset="0.476" stop-color="#15cf74"/><stop offset="0.801" stop-color="#06e775"/><stop offset="1" stop-color="#00f076"/></linearGradient></defs><g transform="translate(-2960 -1063)"><g transform="translate(2968.202 1065.419)"><rect width="287" height="83" rx="5" transform="translate(-0.202 -0.419)"/><g transform="translate(88.188 13.817)"><path class="a" d="M64.179,24.007A5.728,5.728,0,0,1,62.6,28.243a6.149,6.149,0,0,1-4.661,1.878,6.535,6.535,0,0,1-6.591-6.627,6.535,6.535,0,0,1,6.591-6.627,6.568,6.568,0,0,1,2.605.531,5.219,5.219,0,0,1,1.983,1.419L61.418,19.93a4.291,4.291,0,0,0-3.474-1.5,4.906,4.906,0,0,0-4.927,5.067,4.99,4.99,0,0,0,8.471,3.652,4,4,0,0,0,1.064-2.571H57.943V23.051h6.149A5.408,5.408,0,0,1,64.179,24.007Z" transform="translate(-51.352 -16.866)"/><path class="a" d="M65.932,18.558H60.153v4.024h5.21v1.523h-5.21v4.024h5.779v1.558H58.525V17h7.407Z" transform="translate(-43.357 -16.717)"/><path class="a" d="M68.006,29.688H66.374V18.558H62.832V17h8.719v1.558H68.006Z" transform="translate(-38.556 -16.717)"/><path class="a" d="M69.938,29.688V17h1.628V29.688Z" transform="translate(-30.636 -16.717)"/><path class="a" d="M76.855,29.688h-1.63V18.558H71.681V17H80.4v1.558H76.855Z" transform="translate(-28.693 -16.717)"/><path class="a" d="M89.5,28.2a6.588,6.588,0,0,1-9.3,0,6.488,6.488,0,0,1-1.869-4.7,6.488,6.488,0,0,1,1.869-4.7,6.568,6.568,0,0,1,9.294.008,6.486,6.486,0,0,1,1.878,4.7A6.5,6.5,0,0,1,89.5,28.2Zm-8.1-1.064a4.881,4.881,0,0,0,6.894,0,4.966,4.966,0,0,0,1.41-3.641,4.966,4.966,0,0,0-1.41-3.641,4.881,4.881,0,0,0-6.894,0,4.973,4.973,0,0,0-1.408,3.641A4.973,4.973,0,0,0,81.4,27.135Z" transform="translate(-21.287 -16.866)"/><path class="a" d="M85.575,29.688V17h1.986l6.166,9.869h.07l-.07-2.444V17h1.63V29.688h-1.7L87.205,19.339h-.07l.07,2.447v7.9Z" transform="translate(-13.207 -16.717)"/></g><path class="b" d="M108.335,37a8.993,8.993,0,1,0,9.027,8.993A8.864,8.864,0,0,0,108.335,37Zm0,14.443a5.2,5.2,0,0,1-5.077-5.449,5.089,5.089,0,1,1,10.152,0A5.2,5.2,0,0,1,108.335,51.439ZM88.642,37a8.993,8.993,0,1,0,9.027,8.993A8.865,8.865,0,0,0,88.642,37Zm0,14.443a5.2,5.2,0,0,1-5.077-5.449,5.089,5.089,0,1,1,10.152,0A5.2,5.2,0,0,1,88.642,51.439ZM65.214,39.756V43.57h9.129a7.962,7.962,0,0,1-2.077,4.8,9.348,9.348,0,0,1-7.052,2.793,10.152,10.152,0,0,1,0-20.3,9.727,9.727,0,0,1,6.881,2.726L74.787,30.9a13.312,13.312,0,0,0-9.573-3.851,13.969,13.969,0,1,0,0,27.936,12.764,12.764,0,0,0,9.742-3.918,12.607,12.607,0,0,0,3.305-8.926,12.325,12.325,0,0,0-.205-2.383Zm95.808,2.963c-.749-2.009-3.032-5.722-7.7-5.722-4.633,0-8.482,3.643-8.482,8.993a8.8,8.8,0,0,0,8.926,8.993A8.944,8.944,0,0,0,161.261,51L158.2,48.952a5.138,5.138,0,0,1-4.428,2.487,4.578,4.578,0,0,1-4.362-2.724l12.026-4.976Zm-12.265,3a4.934,4.934,0,0,1,4.7-5.246,3.479,3.479,0,0,1,3.339,1.907Zm-9.776,8.721h3.95V28h-3.95Zm-6.475-15.432h-.135A6.233,6.233,0,0,0,127.637,37a9,9,0,0,0,0,17.987,6.127,6.127,0,0,0,4.735-2.045h.135v1.3c0,3.44-1.838,5.28-4.8,5.28a4.977,4.977,0,0,1-4.532-3.2l-3.44,1.432a8.57,8.57,0,0,0,7.972,5.314c4.633,0,8.551-2.726,8.551-9.368V37.54h-3.749Zm-4.529,12.434a5.16,5.16,0,0,1-5.007-5.415,5.2,5.2,0,0,1,5.007-5.485c2.692,0,4.8,2.318,4.8,5.485C132.78,49.157,130.669,51.439,127.978,51.439ZM179.534,28h-9.454V54.437h3.944V44.423h5.511c4.373,0,8.672-3.168,8.672-8.211S183.907,28,179.534,28Zm.1,12.74h-5.612V31.682h5.612a4.531,4.531,0,1,1,0,9.061Zm24.386-3.8c-2.857,0-5.817,1.258-7.042,4.045l3.5,1.463a3.738,3.738,0,0,1,3.605-1.939c2.041,0,4.115,1.224,4.149,3.4v.271a8.728,8.728,0,0,0-4.115-1.019c-3.775,0-7.619,2.074-7.619,5.95,0,3.538,3.1,5.817,6.564,5.817a5.567,5.567,0,0,0,5.035-2.586h.135v2.041h3.808V44.258C212.046,39.565,208.544,36.948,204.021,36.948Zm-.476,14.487c-1.294,0-3.1-.645-3.1-2.244,0-2.041,2.244-2.823,4.183-2.823a7.039,7.039,0,0,1,3.605.884A4.783,4.783,0,0,1,203.545,51.435Zm22.377-13.91L221.4,48.986h-.135l-4.694-11.461h-4.25l7.04,16.018-4.014,8.911h4.115l10.85-24.929Zm-35.54,16.913h3.946V28h-3.946Z" transform="translate(36.491 8.299)"/><g transform="translate(21.834 14.398)"><path class="c" d="M20.95,17.619a4.244,4.244,0,0,0-.977,2.971V67.357a4.24,4.24,0,0,0,.977,2.971l.156.152,26.2-26.2v-.617l-26.2-26.2Z" transform="translate(-19.973 -16.779)"/><path class="d" d="M41.631,43.814,32.9,35.077v-.617l8.735-8.735.2.114,10.347,5.879c2.954,1.679,2.954,4.426,0,6.1L41.83,43.7Z" transform="translate(-5.567 -7.573)"/><path class="e" d="M55.721,38.933,46.789,30,20.435,56.355c.975,1.032,2.584,1.159,4.4.129l30.89-17.551" transform="translate(-19.458 -2.806)"/><path class="f" d="M55.721,35.4,24.831,17.852c-1.812-1.03-3.421-.9-4.4.129L46.789,44.335Z" transform="translate(-19.458 -17.14)"/><g transform="translate(0 35.93)"><path class="g" d="M55.525,34.132,24.831,51.571c-1.717.977-3.252.911-4.238.023h0l-.159.156h0l.156.154,0,0c.985.888,2.521.954,4.238-.023l30.89-17.551Z" transform="translate(-19.458 -34.132)"/><path class="h" d="M20.95,43.884a4.24,4.24,0,0,1-.977-2.971v.311a4.235,4.235,0,0,0,.977,2.969l.159-.156Z" transform="translate(-19.973 -26.574)"/></g><path class="h" d="M47.572,32.746,37.029,38.736l.2.2,10.347-5.879A3.712,3.712,0,0,0,49.788,30h0A3.935,3.935,0,0,1,47.572,32.746Z" transform="translate(-0.962 -2.806)"/><path class="i" d="M25.346,18.161l41.237,23.43A3.935,3.935,0,0,1,68.8,44.335h0a3.706,3.706,0,0,0-2.216-3.053L25.346,17.852c-2.956-1.679-5.373-.283-5.373,3.1v.311C19.973,17.877,22.39,16.482,25.346,18.161Z" transform="translate(-19.973 -17.14)"/></g></g></g><rect class="j" width="303" height="87" rx="5"/></svg>